# xmcd
#
# Track frame offsets:
#	150
#	7928
#	28089
#	37641
#	57999
#	68867
#	82825
#	98538
#	139558
#
# Disc length: 2110 seconds
# Revision: 2
# Processed by: cddbd v1.5.2PL0 Copyright (c) Steve Scherf et al.
# Submitted via: dBpowerAMP V12.0
#
DISCID=5c083c09
DTITLE=Heymoonshaker - Shakerism
DYEAR=2013
DGENRE=Blues
TTITLE0=Ten letter word
TTITLE1=Wallet switcher
TTITLE2=Part1
TTITLE3=Devil in mind
TTITLE4=Premature blues
TTITLE5=Cream F feeling
TTITLE6=Big bop boom
TTITLE7=London part 2
TTITLE8=Colly drop
EXTD=
EXTT0=
EXTT1=
EXTT2=
EXTT3=
EXTT4=
EXTT5=
EXTT6=
EXTT7=
EXTT8=
PLAYORDER=
